<mxfile host="app.diagrams.net" modified="2023-11-04T12:47:37.710Z" agent="Mozilla/5.0 (Windows NT 10.0; Win64; x64) AppleWebKit/537.36 (KHTML, like Gecko) Chrome/116.0.0.0 Safari/537.36 OPR/102.0.0.0" etag="snrCkWJx5JAoaBbSqNyf" version="22.0.8" type="google">
  <diagram name="Page-1" id="hJR7h3Bm0TfsxMA4sgvC">
    <mxGraphModel grid="1" page="1" gridSize="10" guides="1" tooltips="1" connect="1" arrows="1" fold="1" pageScale="1" pageWidth="827" pageHeight="1169" math="0" shadow="0">
      <root>
        <mxCell id="0" />
        <mxCell id="1" parent="0" />
        <mxCell id="NOYR-yz0x58pb2T-3S3r-26" style="edgeStyle=orthogonalEdgeStyle;rounded=0;orthogonalLoop=1;jettySize=auto;html=1;exitX=0.5;exitY=1;exitDx=0;exitDy=0;exitPerimeter=0;" edge="1" parent="1" source="NOYR-yz0x58pb2T-3S3r-1" target="NOYR-yz0x58pb2T-3S3r-58">
          <mxGeometry relative="1" as="geometry">
            <mxPoint x="380" y="110" as="targetPoint" />
          </mxGeometry>
        </mxCell>
        <mxCell id="NOYR-yz0x58pb2T-3S3r-1" value="Start" style="strokeWidth=2;html=1;shape=mxgraph.flowchart.terminator;whiteSpace=wrap;" vertex="1" parent="1">
          <mxGeometry x="330" y="20" width="100" height="60" as="geometry" />
        </mxCell>
        <mxCell id="NOYR-yz0x58pb2T-3S3r-2" value="Stop" style="strokeWidth=2;html=1;shape=mxgraph.flowchart.terminator;whiteSpace=wrap;" vertex="1" parent="1">
          <mxGeometry x="550" y="835" width="100" height="60" as="geometry" />
        </mxCell>
        <mxCell id="NOYR-yz0x58pb2T-3S3r-6" style="edgeStyle=orthogonalEdgeStyle;rounded=0;orthogonalLoop=1;jettySize=auto;html=1;exitX=0.5;exitY=1;exitDx=0;exitDy=0;" edge="1" parent="1" source="NOYR-yz0x58pb2T-3S3r-3" target="NOYR-yz0x58pb2T-3S3r-4">
          <mxGeometry relative="1" as="geometry" />
        </mxCell>
        <mxCell id="NOYR-yz0x58pb2T-3S3r-3" value="User chooses&lt;br&gt;between testing a water &lt;br&gt;sample,&amp;nbsp;running flask,&lt;br&gt;&amp;nbsp;or quitting the program" style="shape=parallelogram;html=1;strokeWidth=2;perimeter=parallelogramPerimeter;whiteSpace=wrap;rounded=1;arcSize=12;size=0.23;" vertex="1" parent="1">
          <mxGeometry x="260" y="240" width="240" height="90" as="geometry" />
        </mxCell>
        <mxCell id="NOYR-yz0x58pb2T-3S3r-4" value="Is testing a water &lt;br&gt;sample selected?" style="strokeWidth=2;html=1;shape=mxgraph.flowchart.decision;whiteSpace=wrap;" vertex="1" parent="1">
          <mxGeometry x="307.5" y="360" width="145" height="150" as="geometry" />
        </mxCell>
        <mxCell id="NOYR-yz0x58pb2T-3S3r-10" style="edgeStyle=orthogonalEdgeStyle;rounded=0;orthogonalLoop=1;jettySize=auto;html=1;" edge="1" parent="1" source="NOYR-yz0x58pb2T-3S3r-7" target="NOYR-yz0x58pb2T-3S3r-9">
          <mxGeometry relative="1" as="geometry" />
        </mxCell>
        <mxCell id="NOYR-yz0x58pb2T-3S3r-7" value="User scans RFID tag &lt;br&gt;for identification" style="shape=parallelogram;html=1;strokeWidth=2;perimeter=parallelogramPerimeter;whiteSpace=wrap;rounded=1;arcSize=12;size=0.23;" vertex="1" parent="1">
          <mxGeometry x="1612.5" y="70" width="240" height="90" as="geometry" />
        </mxCell>
        <mxCell id="NOYR-yz0x58pb2T-3S3r-9" value="Is the scanned &lt;br&gt;tag valid?" style="strokeWidth=2;html=1;shape=mxgraph.flowchart.decision;whiteSpace=wrap;" vertex="1" parent="1">
          <mxGeometry x="1660" y="220" width="145" height="150" as="geometry" />
        </mxCell>
        <mxCell id="NOYR-yz0x58pb2T-3S3r-11" value="" style="endArrow=classic;html=1;rounded=0;" edge="1" parent="1" source="NOYR-yz0x58pb2T-3S3r-4" target="NOYR-yz0x58pb2T-3S3r-95">
          <mxGeometry relative="1" as="geometry">
            <mxPoint x="360" y="360" as="sourcePoint" />
            <mxPoint x="460" y="360" as="targetPoint" />
          </mxGeometry>
        </mxCell>
        <mxCell id="NOYR-yz0x58pb2T-3S3r-12" value="Yes" style="edgeLabel;resizable=0;html=1;align=center;verticalAlign=middle;" connectable="0" vertex="1" parent="NOYR-yz0x58pb2T-3S3r-11">
          <mxGeometry relative="1" as="geometry" />
        </mxCell>
        <mxCell id="NOYR-yz0x58pb2T-3S3r-17" value="" style="endArrow=classic;html=1;rounded=0;exitX=0.5;exitY=1;exitDx=0;exitDy=0;exitPerimeter=0;" edge="1" parent="1" source="NOYR-yz0x58pb2T-3S3r-9" target="NOYR-yz0x58pb2T-3S3r-19">
          <mxGeometry relative="1" as="geometry">
            <mxPoint x="1770" y="500" as="sourcePoint" />
            <mxPoint x="1733" y="510" as="targetPoint" />
          </mxGeometry>
        </mxCell>
        <mxCell id="NOYR-yz0x58pb2T-3S3r-18" value="Yes" style="edgeLabel;resizable=0;html=1;align=center;verticalAlign=middle;" connectable="0" vertex="1" parent="NOYR-yz0x58pb2T-3S3r-17">
          <mxGeometry relative="1" as="geometry" />
        </mxCell>
        <mxCell id="NOYR-yz0x58pb2T-3S3r-21" style="edgeStyle=orthogonalEdgeStyle;rounded=0;orthogonalLoop=1;jettySize=auto;html=1;exitX=0.5;exitY=1;exitDx=0;exitDy=0;" edge="1" parent="1" source="NOYR-yz0x58pb2T-3S3r-19" target="NOYR-yz0x58pb2T-3S3r-20">
          <mxGeometry relative="1" as="geometry" />
        </mxCell>
        <mxCell id="NOYR-yz0x58pb2T-3S3r-19" value="A photo of the user is taken as a login record" style="rounded=1;whiteSpace=wrap;html=1;absoluteArcSize=1;arcSize=14;strokeWidth=2;" vertex="1" parent="1">
          <mxGeometry x="1637.5" y="484" width="190" height="90" as="geometry" />
        </mxCell>
        <mxCell id="NOYR-yz0x58pb2T-3S3r-23" style="edgeStyle=orthogonalEdgeStyle;rounded=0;orthogonalLoop=1;jettySize=auto;html=1;exitX=0.5;exitY=1;exitDx=0;exitDy=0;" edge="1" parent="1" source="NOYR-yz0x58pb2T-3S3r-20" target="NOYR-yz0x58pb2T-3S3r-22">
          <mxGeometry relative="1" as="geometry" />
        </mxCell>
        <mxCell id="NOYR-yz0x58pb2T-3S3r-20" value="User uses the keypad &lt;br&gt;to type the TankID of &lt;br&gt;the tank the they want &lt;br&gt;to test the water of" style="shape=parallelogram;html=1;strokeWidth=2;perimeter=parallelogramPerimeter;whiteSpace=wrap;rounded=1;arcSize=12;size=0.23;" vertex="1" parent="1">
          <mxGeometry x="1612.5" y="670" width="240" height="90" as="geometry" />
        </mxCell>
        <mxCell id="NOYR-yz0x58pb2T-3S3r-22" value="Does a tank with that tankID exist?" style="strokeWidth=2;html=1;shape=mxgraph.flowchart.decision;whiteSpace=wrap;" vertex="1" parent="1">
          <mxGeometry x="1660" y="830" width="145" height="150" as="geometry" />
        </mxCell>
        <mxCell id="NOYR-yz0x58pb2T-3S3r-27" style="edgeStyle=orthogonalEdgeStyle;rounded=0;orthogonalLoop=1;jettySize=auto;html=1;" edge="1" parent="1" source="NOYR-yz0x58pb2T-3S3r-58" target="NOYR-yz0x58pb2T-3S3r-3">
          <mxGeometry relative="1" as="geometry">
            <mxPoint x="380" y="200" as="sourcePoint" />
          </mxGeometry>
        </mxCell>
        <mxCell id="NOYR-yz0x58pb2T-3S3r-28" value="Is the temperature between 20C and 25C &lt;br&gt;and the humidity &lt;br&gt;less than 80?" style="strokeWidth=2;html=1;shape=mxgraph.flowchart.decision;whiteSpace=wrap;" vertex="1" parent="1">
          <mxGeometry x="1660" y="1060" width="145" height="150" as="geometry" />
        </mxCell>
        <mxCell id="NOYR-yz0x58pb2T-3S3r-37" value="" style="endArrow=classic;html=1;rounded=0;" edge="1" parent="1" source="NOYR-yz0x58pb2T-3S3r-22" target="NOYR-yz0x58pb2T-3S3r-28">
          <mxGeometry relative="1" as="geometry">
            <mxPoint x="1753" y="1000" as="sourcePoint" />
            <mxPoint x="1753" y="1080" as="targetPoint" />
          </mxGeometry>
        </mxCell>
        <mxCell id="NOYR-yz0x58pb2T-3S3r-38" value="Yes" style="edgeLabel;resizable=0;html=1;align=center;verticalAlign=middle;" connectable="0" vertex="1" parent="NOYR-yz0x58pb2T-3S3r-37">
          <mxGeometry relative="1" as="geometry" />
        </mxCell>
        <mxCell id="NOYR-yz0x58pb2T-3S3r-39" value="" style="endArrow=classic;html=1;rounded=0;" edge="1" parent="1" source="NOYR-yz0x58pb2T-3S3r-28" target="NOYR-yz0x58pb2T-3S3r-41">
          <mxGeometry relative="1" as="geometry">
            <mxPoint x="1763" y="1010" as="sourcePoint" />
            <mxPoint x="1733" y="1290" as="targetPoint" />
          </mxGeometry>
        </mxCell>
        <mxCell id="NOYR-yz0x58pb2T-3S3r-40" value="Yes" style="edgeLabel;resizable=0;html=1;align=center;verticalAlign=middle;" connectable="0" vertex="1" parent="NOYR-yz0x58pb2T-3S3r-39">
          <mxGeometry relative="1" as="geometry" />
        </mxCell>
        <mxCell id="NOYR-yz0x58pb2T-3S3r-43" style="edgeStyle=orthogonalEdgeStyle;rounded=0;orthogonalLoop=1;jettySize=auto;html=1;exitX=0.5;exitY=1;exitDx=0;exitDy=0;" edge="1" parent="1" source="NOYR-yz0x58pb2T-3S3r-41" target="NOYR-yz0x58pb2T-3S3r-42">
          <mxGeometry relative="1" as="geometry" />
        </mxCell>
        <mxCell id="NOYR-yz0x58pb2T-3S3r-41" value="Inlet opens, Green LED turns on" style="rounded=1;whiteSpace=wrap;html=1;absoluteArcSize=1;arcSize=14;strokeWidth=2;" vertex="1" parent="1">
          <mxGeometry x="1637.5" y="1290" width="192" height="90" as="geometry" />
        </mxCell>
        <mxCell id="NOYR-yz0x58pb2T-3S3r-45" style="edgeStyle=orthogonalEdgeStyle;rounded=0;orthogonalLoop=1;jettySize=auto;html=1;exitX=0.5;exitY=1;exitDx=0;exitDy=0;" edge="1" parent="1" source="NOYR-yz0x58pb2T-3S3r-42" target="NOYR-yz0x58pb2T-3S3r-44">
          <mxGeometry relative="1" as="geometry" />
        </mxCell>
        <mxCell id="NOYR-yz0x58pb2T-3S3r-42" value="Ultrasonic sensor checks the water level" style="rounded=1;whiteSpace=wrap;html=1;absoluteArcSize=1;arcSize=14;strokeWidth=2;" vertex="1" parent="1">
          <mxGeometry x="1637.5" y="1450" width="190" height="90" as="geometry" />
        </mxCell>
        <mxCell id="NOYR-yz0x58pb2T-3S3r-44" value="Is the ultrasonic &lt;br&gt;sensor reading less than or equal to&amp;nbsp;20 cm?" style="strokeWidth=2;html=1;shape=mxgraph.flowchart.decision;whiteSpace=wrap;" vertex="1" parent="1">
          <mxGeometry x="1660" y="1590" width="145" height="150" as="geometry" />
        </mxCell>
        <mxCell id="NOYR-yz0x58pb2T-3S3r-48" value="" style="endArrow=classic;html=1;rounded=0;" edge="1" parent="1" source="NOYR-yz0x58pb2T-3S3r-44" target="NOYR-yz0x58pb2T-3S3r-42">
          <mxGeometry relative="1" as="geometry">
            <mxPoint x="1743" y="1220" as="sourcePoint" />
            <mxPoint x="1880" y="1570" as="targetPoint" />
            <Array as="points">
              <mxPoint x="1940" y="1665" />
              <mxPoint x="1940" y="1495" />
            </Array>
          </mxGeometry>
        </mxCell>
        <mxCell id="NOYR-yz0x58pb2T-3S3r-49" value="No" style="edgeLabel;resizable=0;html=1;align=center;verticalAlign=middle;" connectable="0" vertex="1" parent="NOYR-yz0x58pb2T-3S3r-48">
          <mxGeometry relative="1" as="geometry" />
        </mxCell>
        <mxCell id="NOYR-yz0x58pb2T-3S3r-51" value="" style="endArrow=classic;html=1;rounded=0;" edge="1" parent="1" source="NOYR-yz0x58pb2T-3S3r-44" target="NOYR-yz0x58pb2T-3S3r-53">
          <mxGeometry relative="1" as="geometry">
            <mxPoint x="1753" y="1230" as="sourcePoint" />
            <mxPoint x="1733" y="1820" as="targetPoint" />
          </mxGeometry>
        </mxCell>
        <mxCell id="NOYR-yz0x58pb2T-3S3r-52" value="Yes" style="edgeLabel;resizable=0;html=1;align=center;verticalAlign=middle;" connectable="0" vertex="1" parent="NOYR-yz0x58pb2T-3S3r-51">
          <mxGeometry relative="1" as="geometry" />
        </mxCell>
        <mxCell id="NOYR-yz0x58pb2T-3S3r-55" style="edgeStyle=orthogonalEdgeStyle;rounded=0;orthogonalLoop=1;jettySize=auto;html=1;exitX=0.5;exitY=1;exitDx=0;exitDy=0;" edge="1" parent="1" source="NOYR-yz0x58pb2T-3S3r-53" target="NOYR-yz0x58pb2T-3S3r-154">
          <mxGeometry relative="1" as="geometry">
            <mxPoint x="1733" y="1970" as="targetPoint" />
          </mxGeometry>
        </mxCell>
        <mxCell id="NOYR-yz0x58pb2T-3S3r-53" value="Inlet closes, Green LED turns off" style="rounded=1;whiteSpace=wrap;html=1;absoluteArcSize=1;arcSize=14;strokeWidth=2;" vertex="1" parent="1">
          <mxGeometry x="1637.5" y="1820" width="190" height="90" as="geometry" />
        </mxCell>
        <mxCell id="NOYR-yz0x58pb2T-3S3r-57" style="edgeStyle=orthogonalEdgeStyle;rounded=0;orthogonalLoop=1;jettySize=auto;html=1;exitX=0.5;exitY=1;exitDx=0;exitDy=0;" edge="1" parent="1" source="NOYR-yz0x58pb2T-3S3r-54" target="NOYR-yz0x58pb2T-3S3r-56">
          <mxGeometry relative="1" as="geometry" />
        </mxCell>
        <mxCell id="NOYR-yz0x58pb2T-3S3r-54" value="Analog data of the &lt;br&gt;four sensors are read" style="rounded=1;whiteSpace=wrap;html=1;absoluteArcSize=1;arcSize=14;strokeWidth=2;" vertex="1" parent="1">
          <mxGeometry x="2857.5" y="70" width="190" height="90" as="geometry" />
        </mxCell>
        <mxCell id="NOYR-yz0x58pb2T-3S3r-64" style="edgeStyle=orthogonalEdgeStyle;rounded=0;orthogonalLoop=1;jettySize=auto;html=1;exitX=0.5;exitY=1;exitDx=0;exitDy=0;" edge="1" parent="1" source="NOYR-yz0x58pb2T-3S3r-56" target="NOYR-yz0x58pb2T-3S3r-63">
          <mxGeometry relative="1" as="geometry" />
        </mxCell>
        <mxCell id="NOYR-yz0x58pb2T-3S3r-56" value="Fuzzy Logic program runs on read analog variables&amp;nbsp;" style="rounded=1;whiteSpace=wrap;html=1;absoluteArcSize=1;arcSize=14;strokeWidth=2;" vertex="1" parent="1">
          <mxGeometry x="2857.5" y="230" width="190" height="90" as="geometry" />
        </mxCell>
        <mxCell id="NOYR-yz0x58pb2T-3S3r-58" value="Output welcome message" style="shape=parallelogram;html=1;strokeWidth=2;perimeter=parallelogramPerimeter;whiteSpace=wrap;rounded=1;arcSize=12;size=0.23;" vertex="1" parent="1">
          <mxGeometry x="260" y="110" width="240" height="90" as="geometry" />
        </mxCell>
        <mxCell id="NOYR-yz0x58pb2T-3S3r-60" style="edgeStyle=orthogonalEdgeStyle;rounded=0;orthogonalLoop=1;jettySize=auto;html=1;" edge="1" parent="1" source="NOYR-yz0x58pb2T-3S3r-59" target="NOYR-yz0x58pb2T-3S3r-20">
          <mxGeometry relative="1" as="geometry">
            <Array as="points">
              <mxPoint x="2000" y="715" />
            </Array>
          </mxGeometry>
        </mxCell>
        <mxCell id="NOYR-yz0x58pb2T-3S3r-59" value="Output &quot;Invalid TankID&quot;" style="shape=parallelogram;html=1;strokeWidth=2;perimeter=parallelogramPerimeter;whiteSpace=wrap;rounded=1;arcSize=12;size=0.23;" vertex="1" parent="1">
          <mxGeometry x="1880" y="770" width="240" height="90" as="geometry" />
        </mxCell>
        <mxCell id="NOYR-yz0x58pb2T-3S3r-61" value="" style="endArrow=classic;html=1;rounded=0;edgeStyle=orthogonalEdgeStyle;" edge="1" parent="1" source="NOYR-yz0x58pb2T-3S3r-22" target="NOYR-yz0x58pb2T-3S3r-59">
          <mxGeometry relative="1" as="geometry">
            <mxPoint x="1743" y="990" as="sourcePoint" />
            <mxPoint x="1743" y="1070" as="targetPoint" />
            <Array as="points">
              <mxPoint x="2000" y="905" />
            </Array>
          </mxGeometry>
        </mxCell>
        <mxCell id="NOYR-yz0x58pb2T-3S3r-62" value="No" style="edgeLabel;resizable=0;html=1;align=center;verticalAlign=middle;" connectable="0" vertex="1" parent="NOYR-yz0x58pb2T-3S3r-61">
          <mxGeometry relative="1" as="geometry" />
        </mxCell>
        <mxCell id="NOYR-yz0x58pb2T-3S3r-66" style="edgeStyle=orthogonalEdgeStyle;rounded=0;orthogonalLoop=1;jettySize=auto;html=1;exitX=0.5;exitY=1;exitDx=0;exitDy=0;" edge="1" parent="1" source="NOYR-yz0x58pb2T-3S3r-63" target="NOYR-yz0x58pb2T-3S3r-65">
          <mxGeometry relative="1" as="geometry" />
        </mxCell>
        <mxCell id="NOYR-yz0x58pb2T-3S3r-63" value="Fuzzy Output is used as analog output, connected to a red LED." style="rounded=1;whiteSpace=wrap;html=1;absoluteArcSize=1;arcSize=14;strokeWidth=2;" vertex="1" parent="1">
          <mxGeometry x="2857.5" y="390" width="190" height="90" as="geometry" />
        </mxCell>
        <mxCell id="NOYR-yz0x58pb2T-3S3r-68" style="edgeStyle=orthogonalEdgeStyle;rounded=0;orthogonalLoop=1;jettySize=auto;html=1;exitX=0.5;exitY=1;exitDx=0;exitDy=0;" edge="1" parent="1" source="NOYR-yz0x58pb2T-3S3r-65" target="NOYR-yz0x58pb2T-3S3r-67">
          <mxGeometry relative="1" as="geometry" />
        </mxCell>
        <mxCell id="NOYR-yz0x58pb2T-3S3r-65" value="Output sensor values or &lt;br&gt;fuzzy output onto the LCD" style="shape=parallelogram;html=1;strokeWidth=2;perimeter=parallelogramPerimeter;whiteSpace=wrap;rounded=1;arcSize=12;size=0.23;" vertex="1" parent="1">
          <mxGeometry x="2833" y="550" width="240" height="90" as="geometry" />
        </mxCell>
        <mxCell id="NOYR-yz0x58pb2T-3S3r-70" style="edgeStyle=orthogonalEdgeStyle;rounded=0;orthogonalLoop=1;jettySize=auto;html=1;exitX=0.5;exitY=1;exitDx=0;exitDy=0;" edge="1" parent="1" source="NOYR-yz0x58pb2T-3S3r-67" target="NOYR-yz0x58pb2T-3S3r-69">
          <mxGeometry relative="1" as="geometry" />
        </mxCell>
        <mxCell id="NOYR-yz0x58pb2T-3S3r-67" value="Send TankID, sensor values,&amp;nbsp;&lt;br&gt;and the fuzzy output thingspeak" style="rounded=1;whiteSpace=wrap;html=1;absoluteArcSize=1;arcSize=14;strokeWidth=2;" vertex="1" parent="1">
          <mxGeometry x="2857.5" y="730" width="190" height="90" as="geometry" />
        </mxCell>
        <mxCell id="NOYR-yz0x58pb2T-3S3r-69" value="Is the scroll button pressed?" style="strokeWidth=2;html=1;shape=mxgraph.flowchart.decision;whiteSpace=wrap;" vertex="1" parent="1">
          <mxGeometry x="2880" y="890" width="145" height="150" as="geometry" />
        </mxCell>
        <mxCell id="NOYR-yz0x58pb2T-3S3r-71" value="" style="endArrow=classic;html=1;rounded=0;edgeStyle=orthogonalEdgeStyle;entryX=0.5;entryY=0;entryDx=0;entryDy=0;" edge="1" parent="1" source="NOYR-yz0x58pb2T-3S3r-69" target="NOYR-yz0x58pb2T-3S3r-73">
          <mxGeometry relative="1" as="geometry">
            <mxPoint x="2951.79" y="1110" as="sourcePoint" />
            <mxPoint x="3260" y="965" as="targetPoint" />
          </mxGeometry>
        </mxCell>
        <mxCell id="NOYR-yz0x58pb2T-3S3r-72" value="Yes" style="edgeLabel;resizable=0;html=1;align=center;verticalAlign=middle;" connectable="0" vertex="1" parent="NOYR-yz0x58pb2T-3S3r-71">
          <mxGeometry relative="1" as="geometry" />
        </mxCell>
        <mxCell id="NOYR-yz0x58pb2T-3S3r-73" value="LCD is set to display the next variable next time it updates" style="rounded=1;whiteSpace=wrap;html=1;absoluteArcSize=1;arcSize=14;strokeWidth=2;" vertex="1" parent="1">
          <mxGeometry x="2590" y="1030" width="190" height="90" as="geometry" />
        </mxCell>
        <mxCell id="NOYR-yz0x58pb2T-3S3r-74" value="" style="endArrow=classic;html=1;rounded=0;edgeStyle=orthogonalEdgeStyle;" edge="1" parent="1" source="NOYR-yz0x58pb2T-3S3r-69" target="NOYR-yz0x58pb2T-3S3r-76">
          <mxGeometry relative="1" as="geometry">
            <mxPoint x="3035" y="975" as="sourcePoint" />
            <mxPoint x="2953" y="1130" as="targetPoint" />
          </mxGeometry>
        </mxCell>
        <mxCell id="NOYR-yz0x58pb2T-3S3r-75" value="No" style="edgeLabel;resizable=0;html=1;align=center;verticalAlign=middle;" connectable="0" vertex="1" parent="NOYR-yz0x58pb2T-3S3r-74">
          <mxGeometry relative="1" as="geometry" />
        </mxCell>
        <mxCell id="NOYR-yz0x58pb2T-3S3r-76" value="Is the end button &lt;br&gt;pressed?" style="strokeWidth=2;html=1;shape=mxgraph.flowchart.decision;whiteSpace=wrap;" vertex="1" parent="1">
          <mxGeometry x="2880" y="1130" width="145" height="150" as="geometry" />
        </mxCell>
        <mxCell id="NOYR-yz0x58pb2T-3S3r-77" value="" style="endArrow=classic;html=1;rounded=0;edgeStyle=orthogonalEdgeStyle;exitX=1;exitY=0.5;exitDx=0;exitDy=0;exitPerimeter=0;entryX=1;entryY=0.5;entryDx=0;entryDy=0;" edge="1" parent="1" source="NOYR-yz0x58pb2T-3S3r-76" target="NOYR-yz0x58pb2T-3S3r-54">
          <mxGeometry relative="1" as="geometry">
            <mxPoint x="2963" y="1050" as="sourcePoint" />
            <mxPoint x="3380" y="190" as="targetPoint" />
            <Array as="points">
              <mxPoint x="3250" y="1205" />
              <mxPoint x="3250" y="115" />
            </Array>
          </mxGeometry>
        </mxCell>
        <mxCell id="NOYR-yz0x58pb2T-3S3r-78" value="No" style="edgeLabel;resizable=0;html=1;align=center;verticalAlign=middle;" connectable="0" vertex="1" parent="NOYR-yz0x58pb2T-3S3r-77">
          <mxGeometry relative="1" as="geometry" />
        </mxCell>
        <mxCell id="NOYR-yz0x58pb2T-3S3r-79" style="edgeStyle=orthogonalEdgeStyle;rounded=0;orthogonalLoop=1;jettySize=auto;html=1;exitX=0.5;exitY=1;exitDx=0;exitDy=0;entryX=0;entryY=0.5;entryDx=0;entryDy=0;entryPerimeter=0;" edge="1" parent="1" source="NOYR-yz0x58pb2T-3S3r-73" target="NOYR-yz0x58pb2T-3S3r-76">
          <mxGeometry relative="1" as="geometry" />
        </mxCell>
        <mxCell id="NOYR-yz0x58pb2T-3S3r-88" style="edgeStyle=orthogonalEdgeStyle;rounded=0;orthogonalLoop=1;jettySize=auto;html=1;exitX=0.5;exitY=1;exitDx=0;exitDy=0;" edge="1" parent="1" source="NOYR-yz0x58pb2T-3S3r-80" target="NOYR-yz0x58pb2T-3S3r-84">
          <mxGeometry relative="1" as="geometry" />
        </mxCell>
        <mxCell id="NOYR-yz0x58pb2T-3S3r-80" value="Outlet opens, Red LED turns on" style="rounded=1;whiteSpace=wrap;html=1;absoluteArcSize=1;arcSize=14;strokeWidth=2;" vertex="1" parent="1">
          <mxGeometry x="2857.5" y="1347" width="190" height="90" as="geometry" />
        </mxCell>
        <mxCell id="NOYR-yz0x58pb2T-3S3r-100" style="edgeStyle=orthogonalEdgeStyle;rounded=0;orthogonalLoop=1;jettySize=auto;html=1;exitX=0.5;exitY=1;exitDx=0;exitDy=0;" edge="1" parent="1" source="NOYR-yz0x58pb2T-3S3r-82" target="NOYR-yz0x58pb2T-3S3r-99">
          <mxGeometry relative="1" as="geometry" />
        </mxCell>
        <mxCell id="NOYR-yz0x58pb2T-3S3r-82" value="Outlet closes, Red LED turns off" style="rounded=1;whiteSpace=wrap;html=1;absoluteArcSize=1;arcSize=14;strokeWidth=2;" vertex="1" parent="1">
          <mxGeometry x="2857.5" y="1870" width="190" height="90" as="geometry" />
        </mxCell>
        <mxCell id="NOYR-yz0x58pb2T-3S3r-83" style="edgeStyle=orthogonalEdgeStyle;rounded=0;orthogonalLoop=1;jettySize=auto;html=1;exitX=0.5;exitY=1;exitDx=0;exitDy=0;" edge="1" parent="1" source="NOYR-yz0x58pb2T-3S3r-84" target="NOYR-yz0x58pb2T-3S3r-85">
          <mxGeometry relative="1" as="geometry" />
        </mxCell>
        <mxCell id="NOYR-yz0x58pb2T-3S3r-84" value="Ultrasonic sensor checks the water level" style="rounded=1;whiteSpace=wrap;html=1;absoluteArcSize=1;arcSize=14;strokeWidth=2;" vertex="1" parent="1">
          <mxGeometry x="2857.5" y="1500" width="190" height="90" as="geometry" />
        </mxCell>
        <mxCell id="NOYR-yz0x58pb2T-3S3r-85" value="Is the ultrasonic &lt;br&gt;sensor reading&lt;br&gt;&amp;nbsp;100 cm?" style="strokeWidth=2;html=1;shape=mxgraph.flowchart.decision;whiteSpace=wrap;" vertex="1" parent="1">
          <mxGeometry x="2880" y="1640" width="145" height="150" as="geometry" />
        </mxCell>
        <mxCell id="NOYR-yz0x58pb2T-3S3r-86" value="" style="endArrow=classic;html=1;rounded=0;" edge="1" parent="1" source="NOYR-yz0x58pb2T-3S3r-85" target="NOYR-yz0x58pb2T-3S3r-84">
          <mxGeometry relative="1" as="geometry">
            <mxPoint x="2963" y="1270" as="sourcePoint" />
            <mxPoint x="3100" y="1620" as="targetPoint" />
            <Array as="points">
              <mxPoint x="3160" y="1715" />
              <mxPoint x="3160" y="1545" />
            </Array>
          </mxGeometry>
        </mxCell>
        <mxCell id="NOYR-yz0x58pb2T-3S3r-87" value="No" style="edgeLabel;resizable=0;html=1;align=center;verticalAlign=middle;" connectable="0" vertex="1" parent="NOYR-yz0x58pb2T-3S3r-86">
          <mxGeometry relative="1" as="geometry" />
        </mxCell>
        <mxCell id="NOYR-yz0x58pb2T-3S3r-89" value="" style="endArrow=classic;html=1;rounded=0;exitX=0.5;exitY=1;exitDx=0;exitDy=0;exitPerimeter=0;entryX=0.5;entryY=0;entryDx=0;entryDy=0;edgeStyle=orthogonalEdgeStyle;" edge="1" parent="1" source="NOYR-yz0x58pb2T-3S3r-85" target="NOYR-yz0x58pb2T-3S3r-82">
          <mxGeometry relative="1" as="geometry">
            <mxPoint x="3035" y="1725" as="sourcePoint" />
            <mxPoint x="3058" y="1555" as="targetPoint" />
          </mxGeometry>
        </mxCell>
        <mxCell id="NOYR-yz0x58pb2T-3S3r-90" value="Yes" style="edgeLabel;resizable=0;html=1;align=center;verticalAlign=middle;" connectable="0" vertex="1" parent="NOYR-yz0x58pb2T-3S3r-89">
          <mxGeometry relative="1" as="geometry" />
        </mxCell>
        <mxCell id="NOYR-yz0x58pb2T-3S3r-95" value="A" style="ellipse;whiteSpace=wrap;html=1;aspect=fixed;" vertex="1" parent="1">
          <mxGeometry x="550" y="415" width="40" height="40" as="geometry" />
        </mxCell>
        <mxCell id="NOYR-yz0x58pb2T-3S3r-98" style="edgeStyle=orthogonalEdgeStyle;rounded=0;orthogonalLoop=1;jettySize=auto;html=1;exitX=0.5;exitY=1;exitDx=0;exitDy=0;" edge="1" parent="1" source="NOYR-yz0x58pb2T-3S3r-96" target="NOYR-yz0x58pb2T-3S3r-7">
          <mxGeometry relative="1" as="geometry" />
        </mxCell>
        <mxCell id="NOYR-yz0x58pb2T-3S3r-96" value="A" style="ellipse;whiteSpace=wrap;html=1;aspect=fixed;" vertex="1" parent="1">
          <mxGeometry x="1712.5" y="-30" width="40" height="40" as="geometry" />
        </mxCell>
        <mxCell id="NOYR-yz0x58pb2T-3S3r-99" value="Z" style="ellipse;whiteSpace=wrap;html=1;aspect=fixed;" vertex="1" parent="1">
          <mxGeometry x="2933.5" y="2002" width="40" height="40" as="geometry" />
        </mxCell>
        <mxCell id="NOYR-yz0x58pb2T-3S3r-103" style="edgeStyle=orthogonalEdgeStyle;rounded=0;orthogonalLoop=1;jettySize=auto;html=1;exitX=0;exitY=0.5;exitDx=0;exitDy=0;" edge="1" parent="1" source="NOYR-yz0x58pb2T-3S3r-101" target="NOYR-yz0x58pb2T-3S3r-3">
          <mxGeometry relative="1" as="geometry" />
        </mxCell>
        <mxCell id="NOYR-yz0x58pb2T-3S3r-101" value="Z" style="ellipse;whiteSpace=wrap;html=1;aspect=fixed;" vertex="1" parent="1">
          <mxGeometry x="550" y="265" width="40" height="40" as="geometry" />
        </mxCell>
        <mxCell id="NOYR-yz0x58pb2T-3S3r-104" value="Is running Flask &lt;br&gt;selected?" style="strokeWidth=2;html=1;shape=mxgraph.flowchart.decision;whiteSpace=wrap;" vertex="1" parent="1">
          <mxGeometry x="307.5" y="574" width="145" height="150" as="geometry" />
        </mxCell>
        <mxCell id="NOYR-yz0x58pb2T-3S3r-106" value="Did the user &lt;br&gt;select to quit?" style="strokeWidth=2;html=1;shape=mxgraph.flowchart.decision;whiteSpace=wrap;" vertex="1" parent="1">
          <mxGeometry x="307.5" y="790" width="145" height="150" as="geometry" />
        </mxCell>
        <mxCell id="NOYR-yz0x58pb2T-3S3r-112" value="" style="endArrow=classic;html=1;rounded=0;" edge="1" parent="1" source="NOYR-yz0x58pb2T-3S3r-4" target="NOYR-yz0x58pb2T-3S3r-104">
          <mxGeometry relative="1" as="geometry">
            <mxPoint x="463" y="445" as="sourcePoint" />
            <mxPoint x="560" y="445" as="targetPoint" />
          </mxGeometry>
        </mxCell>
        <mxCell id="NOYR-yz0x58pb2T-3S3r-113" value="No" style="edgeLabel;resizable=0;html=1;align=center;verticalAlign=middle;" connectable="0" vertex="1" parent="NOYR-yz0x58pb2T-3S3r-112">
          <mxGeometry relative="1" as="geometry" />
        </mxCell>
        <mxCell id="NOYR-yz0x58pb2T-3S3r-114" value="" style="endArrow=classic;html=1;rounded=0;" edge="1" parent="1" source="NOYR-yz0x58pb2T-3S3r-104" target="NOYR-yz0x58pb2T-3S3r-106">
          <mxGeometry relative="1" as="geometry">
            <mxPoint x="473" y="455" as="sourcePoint" />
            <mxPoint x="570" y="455" as="targetPoint" />
          </mxGeometry>
        </mxCell>
        <mxCell id="NOYR-yz0x58pb2T-3S3r-115" value="No" style="edgeLabel;resizable=0;html=1;align=center;verticalAlign=middle;" connectable="0" vertex="1" parent="NOYR-yz0x58pb2T-3S3r-114">
          <mxGeometry relative="1" as="geometry" />
        </mxCell>
        <mxCell id="NOYR-yz0x58pb2T-3S3r-116" value="" style="endArrow=classic;html=1;rounded=0;" edge="1" parent="1" source="NOYR-yz0x58pb2T-3S3r-104" target="NOYR-yz0x58pb2T-3S3r-118">
          <mxGeometry relative="1" as="geometry">
            <mxPoint x="452.5" y="636.3560569893912" as="sourcePoint" />
            <mxPoint x="477" y="575" as="targetPoint" />
          </mxGeometry>
        </mxCell>
        <mxCell id="NOYR-yz0x58pb2T-3S3r-117" value="Yes" style="edgeLabel;resizable=0;html=1;align=center;verticalAlign=middle;" connectable="0" vertex="1" parent="NOYR-yz0x58pb2T-3S3r-116">
          <mxGeometry relative="1" as="geometry" />
        </mxCell>
        <mxCell id="NOYR-yz0x58pb2T-3S3r-118" value="C" style="ellipse;whiteSpace=wrap;html=1;aspect=fixed;" vertex="1" parent="1">
          <mxGeometry x="550" y="629" width="40" height="40" as="geometry" />
        </mxCell>
        <mxCell id="NOYR-yz0x58pb2T-3S3r-122" value="" style="endArrow=classic;html=1;rounded=0;" edge="1" parent="1" source="NOYR-yz0x58pb2T-3S3r-106" target="NOYR-yz0x58pb2T-3S3r-2">
          <mxGeometry relative="1" as="geometry">
            <mxPoint x="452.5" y="864.55" as="sourcePoint" />
            <mxPoint x="549.5" y="864.55" as="targetPoint" />
          </mxGeometry>
        </mxCell>
        <mxCell id="NOYR-yz0x58pb2T-3S3r-123" value="Yes" style="edgeLabel;resizable=0;html=1;align=center;verticalAlign=middle;" connectable="0" vertex="1" parent="NOYR-yz0x58pb2T-3S3r-122">
          <mxGeometry relative="1" as="geometry" />
        </mxCell>
        <mxCell id="NOYR-yz0x58pb2T-3S3r-125" value="" style="endArrow=classic;html=1;rounded=0;exitX=0;exitY=0.5;exitDx=0;exitDy=0;exitPerimeter=0;entryX=0.5;entryY=1;entryDx=0;entryDy=0;edgeStyle=orthogonalEdgeStyle;" edge="1" parent="1" source="NOYR-yz0x58pb2T-3S3r-106" target="NOYR-yz0x58pb2T-3S3r-127">
          <mxGeometry relative="1" as="geometry">
            <mxPoint x="390" y="734" as="sourcePoint" />
            <mxPoint x="110" y="865" as="targetPoint" />
          </mxGeometry>
        </mxCell>
        <mxCell id="NOYR-yz0x58pb2T-3S3r-126" value="No" style="edgeLabel;resizable=0;html=1;align=center;verticalAlign=middle;" connectable="0" vertex="1" parent="NOYR-yz0x58pb2T-3S3r-125">
          <mxGeometry relative="1" as="geometry" />
        </mxCell>
        <mxCell id="NOYR-yz0x58pb2T-3S3r-128" style="edgeStyle=orthogonalEdgeStyle;rounded=0;orthogonalLoop=1;jettySize=auto;html=1;exitX=0.5;exitY=0;exitDx=0;exitDy=0;entryX=0;entryY=0.5;entryDx=0;entryDy=0;" edge="1" parent="1" source="NOYR-yz0x58pb2T-3S3r-127" target="NOYR-yz0x58pb2T-3S3r-3">
          <mxGeometry relative="1" as="geometry">
            <Array as="points">
              <mxPoint x="30" y="285" />
            </Array>
          </mxGeometry>
        </mxCell>
        <mxCell id="NOYR-yz0x58pb2T-3S3r-127" value="Output &quot;Invalid input&quot;" style="shape=parallelogram;html=1;strokeWidth=2;perimeter=parallelogramPerimeter;whiteSpace=wrap;rounded=1;arcSize=12;size=0.23;" vertex="1" parent="1">
          <mxGeometry x="-90" y="585" width="240" height="90" as="geometry" />
        </mxCell>
        <mxCell id="NOYR-yz0x58pb2T-3S3r-130" value="" style="endArrow=classic;html=1;rounded=0;exitX=0;exitY=0.5;exitDx=0;exitDy=0;exitPerimeter=0;" edge="1" parent="1" source="NOYR-yz0x58pb2T-3S3r-28" target="NOYR-yz0x58pb2T-3S3r-132">
          <mxGeometry relative="1" as="geometry">
            <mxPoint x="1815" y="915" as="sourcePoint" />
            <mxPoint x="1340" y="840" as="targetPoint" />
          </mxGeometry>
        </mxCell>
        <mxCell id="NOYR-yz0x58pb2T-3S3r-131" value="No" style="edgeLabel;resizable=0;html=1;align=center;verticalAlign=middle;" connectable="0" vertex="1" parent="NOYR-yz0x58pb2T-3S3r-130">
          <mxGeometry relative="1" as="geometry" />
        </mxCell>
        <mxCell id="NOYR-yz0x58pb2T-3S3r-132" value="Z" style="ellipse;whiteSpace=wrap;html=1;aspect=fixed;" vertex="1" parent="1">
          <mxGeometry x="1450" y="1115" width="40" height="40" as="geometry" />
        </mxCell>
        <mxCell id="NOYR-yz0x58pb2T-3S3r-137" value="Is this the third&lt;br&gt;&amp;nbsp;invalid attempt?&amp;nbsp;" style="strokeWidth=2;html=1;shape=mxgraph.flowchart.decision;whiteSpace=wrap;" vertex="1" parent="1">
          <mxGeometry x="1940" y="220" width="145" height="150" as="geometry" />
        </mxCell>
        <mxCell id="NOYR-yz0x58pb2T-3S3r-138" value="" style="endArrow=classic;html=1;rounded=0;exitX=1;exitY=0.5;exitDx=0;exitDy=0;exitPerimeter=0;entryX=0;entryY=0.5;entryDx=0;entryDy=0;entryPerimeter=0;" edge="1" parent="1" source="NOYR-yz0x58pb2T-3S3r-9" target="NOYR-yz0x58pb2T-3S3r-137">
          <mxGeometry relative="1" as="geometry">
            <mxPoint x="1743" y="380" as="sourcePoint" />
            <mxPoint x="1743" y="494" as="targetPoint" />
          </mxGeometry>
        </mxCell>
        <mxCell id="NOYR-yz0x58pb2T-3S3r-139" value="No" style="edgeLabel;resizable=0;html=1;align=center;verticalAlign=middle;" connectable="0" vertex="1" parent="NOYR-yz0x58pb2T-3S3r-138">
          <mxGeometry relative="1" as="geometry" />
        </mxCell>
        <mxCell id="NOYR-yz0x58pb2T-3S3r-140" value="" style="endArrow=classic;html=1;rounded=0;exitX=0.5;exitY=0;exitDx=0;exitDy=0;exitPerimeter=0;entryX=1;entryY=0.5;entryDx=0;entryDy=0;edgeStyle=orthogonalEdgeStyle;" edge="1" parent="1" source="NOYR-yz0x58pb2T-3S3r-137" target="NOYR-yz0x58pb2T-3S3r-7">
          <mxGeometry relative="1" as="geometry">
            <mxPoint x="1815" y="305" as="sourcePoint" />
            <mxPoint x="1950" y="305" as="targetPoint" />
            <Array as="points">
              <mxPoint x="2013" y="115" />
            </Array>
          </mxGeometry>
        </mxCell>
        <mxCell id="NOYR-yz0x58pb2T-3S3r-141" value="No" style="edgeLabel;resizable=0;html=1;align=center;verticalAlign=middle;" connectable="0" vertex="1" parent="NOYR-yz0x58pb2T-3S3r-140">
          <mxGeometry relative="1" as="geometry" />
        </mxCell>
        <mxCell id="NOYR-yz0x58pb2T-3S3r-144" value="" style="endArrow=classic;html=1;rounded=0;exitX=1;exitY=0.5;exitDx=0;exitDy=0;exitPerimeter=0;" edge="1" parent="1" source="NOYR-yz0x58pb2T-3S3r-137" target="NOYR-yz0x58pb2T-3S3r-146">
          <mxGeometry relative="1" as="geometry">
            <mxPoint x="2023" y="230" as="sourcePoint" />
            <mxPoint x="2200" y="295" as="targetPoint" />
          </mxGeometry>
        </mxCell>
        <mxCell id="NOYR-yz0x58pb2T-3S3r-145" value="Yes" style="edgeLabel;resizable=0;html=1;align=center;verticalAlign=middle;" connectable="0" vertex="1" parent="NOYR-yz0x58pb2T-3S3r-144">
          <mxGeometry relative="1" as="geometry" />
        </mxCell>
        <mxCell id="NOYR-yz0x58pb2T-3S3r-149" style="edgeStyle=orthogonalEdgeStyle;rounded=0;orthogonalLoop=1;jettySize=auto;html=1;exitX=0.5;exitY=1;exitDx=0;exitDy=0;" edge="1" parent="1" source="NOYR-yz0x58pb2T-3S3r-146" target="NOYR-yz0x58pb2T-3S3r-148">
          <mxGeometry relative="1" as="geometry" />
        </mxCell>
        <mxCell id="NOYR-yz0x58pb2T-3S3r-146" value="A video of the invalid user&lt;br&gt;&amp;nbsp;is taken&amp;nbsp;" style="rounded=1;whiteSpace=wrap;html=1;absoluteArcSize=1;arcSize=14;strokeWidth=2;" vertex="1" parent="1">
          <mxGeometry x="2190" y="250" width="190" height="90" as="geometry" />
        </mxCell>
        <mxCell id="NOYR-yz0x58pb2T-3S3r-151" style="edgeStyle=orthogonalEdgeStyle;rounded=0;orthogonalLoop=1;jettySize=auto;html=1;exitX=0.5;exitY=1;exitDx=0;exitDy=0;" edge="1" parent="1" source="NOYR-yz0x58pb2T-3S3r-148" target="NOYR-yz0x58pb2T-3S3r-150">
          <mxGeometry relative="1" as="geometry" />
        </mxCell>
        <mxCell id="NOYR-yz0x58pb2T-3S3r-148" value="Buzzer buzzes to alert others" style="rounded=1;whiteSpace=wrap;html=1;absoluteArcSize=1;arcSize=14;strokeWidth=2;" vertex="1" parent="1">
          <mxGeometry x="2190" y="410" width="190" height="90" as="geometry" />
        </mxCell>
        <mxCell id="NOYR-yz0x58pb2T-3S3r-150" value="Stop" style="strokeWidth=2;html=1;shape=mxgraph.flowchart.terminator;whiteSpace=wrap;" vertex="1" parent="1">
          <mxGeometry x="2235" y="570" width="100" height="60" as="geometry" />
        </mxCell>
        <mxCell id="NOYR-yz0x58pb2T-3S3r-152" style="edgeStyle=orthogonalEdgeStyle;rounded=0;orthogonalLoop=1;jettySize=auto;html=1;exitX=0.5;exitY=1;exitDx=0;exitDy=0;" edge="1" parent="1" source="NOYR-yz0x58pb2T-3S3r-153" target="NOYR-yz0x58pb2T-3S3r-54">
          <mxGeometry relative="1" as="geometry">
            <mxPoint x="2960.5" y="70" as="targetPoint" />
          </mxGeometry>
        </mxCell>
        <mxCell id="NOYR-yz0x58pb2T-3S3r-153" value="B" style="ellipse;whiteSpace=wrap;html=1;aspect=fixed;" vertex="1" parent="1">
          <mxGeometry x="2932.5" y="-30" width="40" height="40" as="geometry" />
        </mxCell>
        <mxCell id="NOYR-yz0x58pb2T-3S3r-154" value="B" style="ellipse;whiteSpace=wrap;html=1;aspect=fixed;" vertex="1" parent="1">
          <mxGeometry x="1712.5" y="1970" width="40" height="40" as="geometry" />
        </mxCell>
        <mxCell id="NOYR-yz0x58pb2T-3S3r-155" value="" style="endArrow=classic;html=1;rounded=0;edgeStyle=orthogonalEdgeStyle;" edge="1" parent="1" source="NOYR-yz0x58pb2T-3S3r-76" target="NOYR-yz0x58pb2T-3S3r-80">
          <mxGeometry relative="1" as="geometry">
            <mxPoint x="2963" y="1050" as="sourcePoint" />
            <mxPoint x="2963" y="1140" as="targetPoint" />
          </mxGeometry>
        </mxCell>
        <mxCell id="NOYR-yz0x58pb2T-3S3r-156" value="Yes" style="edgeLabel;resizable=0;html=1;align=center;verticalAlign=middle;" connectable="0" vertex="1" parent="NOYR-yz0x58pb2T-3S3r-155">
          <mxGeometry relative="1" as="geometry" />
        </mxCell>
        <mxCell id="NOYR-yz0x58pb2T-3S3r-161" style="edgeStyle=orthogonalEdgeStyle;rounded=0;orthogonalLoop=1;jettySize=auto;html=1;exitX=0.5;exitY=1;exitDx=0;exitDy=0;" edge="1" parent="1" source="NOYR-yz0x58pb2T-3S3r-157" target="NOYR-yz0x58pb2T-3S3r-160">
          <mxGeometry relative="1" as="geometry" />
        </mxCell>
        <mxCell id="NOYR-yz0x58pb2T-3S3r-157" value="C" style="ellipse;whiteSpace=wrap;html=1;aspect=fixed;" vertex="1" parent="1">
          <mxGeometry x="4070" y="-30" width="40" height="40" as="geometry" />
        </mxCell>
        <mxCell id="NOYR-yz0x58pb2T-3S3r-174" style="edgeStyle=orthogonalEdgeStyle;rounded=0;orthogonalLoop=1;jettySize=auto;html=1;exitX=0;exitY=0.5;exitDx=0;exitDy=0;exitPerimeter=0;" edge="1" parent="1" source="NOYR-yz0x58pb2T-3S3r-158" target="NOYR-yz0x58pb2T-3S3r-178">
          <mxGeometry relative="1" as="geometry">
            <mxPoint x="4280" y="265" as="targetPoint" />
          </mxGeometry>
        </mxCell>
        <mxCell id="NOYR-yz0x58pb2T-3S3r-176" value="Index" style="edgeLabel;html=1;align=center;verticalAlign=middle;resizable=0;points=[];" connectable="0" vertex="1" parent="NOYR-yz0x58pb2T-3S3r-174">
          <mxGeometry x="-0.1395" relative="1" as="geometry">
            <mxPoint as="offset" />
          </mxGeometry>
        </mxCell>
        <mxCell id="NOYR-yz0x58pb2T-3S3r-175" style="edgeStyle=orthogonalEdgeStyle;rounded=0;orthogonalLoop=1;jettySize=auto;html=1;exitX=0.5;exitY=1;exitDx=0;exitDy=0;exitPerimeter=0;" edge="1" parent="1" source="NOYR-yz0x58pb2T-3S3r-158" target="NOYR-yz0x58pb2T-3S3r-180">
          <mxGeometry relative="1" as="geometry">
            <mxPoint x="4090" y="410" as="targetPoint" />
          </mxGeometry>
        </mxCell>
        <mxCell id="NOYR-yz0x58pb2T-3S3r-177" value="lastLoggedIn" style="edgeLabel;html=1;align=center;verticalAlign=middle;resizable=0;points=[];" connectable="0" vertex="1" parent="NOYR-yz0x58pb2T-3S3r-175">
          <mxGeometry x="-0.3486" y="2" relative="1" as="geometry">
            <mxPoint x="-2" y="95" as="offset" />
          </mxGeometry>
        </mxCell>
        <mxCell id="NOYR-yz0x58pb2T-3S3r-186" style="edgeStyle=orthogonalEdgeStyle;rounded=0;orthogonalLoop=1;jettySize=auto;html=1;exitX=1;exitY=0.5;exitDx=0;exitDy=0;exitPerimeter=0;entryX=0;entryY=0.5;entryDx=0;entryDy=0;" edge="1" parent="1" source="NOYR-yz0x58pb2T-3S3r-158" target="NOYR-yz0x58pb2T-3S3r-185">
          <mxGeometry relative="1" as="geometry">
            <Array as="points">
              <mxPoint x="4270" y="265" />
              <mxPoint x="4270" y="100" />
              <mxPoint x="4468" y="100" />
            </Array>
          </mxGeometry>
        </mxCell>
        <mxCell id="NOYR-yz0x58pb2T-3S3r-187" value="tankStats" style="edgeLabel;html=1;align=center;verticalAlign=middle;resizable=0;points=[];" connectable="0" vertex="1" parent="NOYR-yz0x58pb2T-3S3r-186">
          <mxGeometry x="0.4509" y="-1" relative="1" as="geometry">
            <mxPoint x="-1" as="offset" />
          </mxGeometry>
        </mxCell>
        <mxCell id="NOYR-yz0x58pb2T-3S3r-191" style="edgeStyle=orthogonalEdgeStyle;rounded=0;orthogonalLoop=1;jettySize=auto;html=1;exitX=1;exitY=0.5;exitDx=0;exitDy=0;exitPerimeter=0;" edge="1" parent="1" source="NOYR-yz0x58pb2T-3S3r-158" target="NOYR-yz0x58pb2T-3S3r-190">
          <mxGeometry relative="1" as="geometry" />
        </mxCell>
        <mxCell id="NOYR-yz0x58pb2T-3S3r-192" value="fuzzy" style="edgeLabel;html=1;align=center;verticalAlign=middle;resizable=0;points=[];" connectable="0" vertex="1" parent="NOYR-yz0x58pb2T-3S3r-191">
          <mxGeometry x="0.277" y="2" relative="1" as="geometry">
            <mxPoint x="-1" as="offset" />
          </mxGeometry>
        </mxCell>
        <mxCell id="NOYR-yz0x58pb2T-3S3r-196" style="edgeStyle=orthogonalEdgeStyle;rounded=0;orthogonalLoop=1;jettySize=auto;html=1;exitX=1;exitY=0.5;exitDx=0;exitDy=0;exitPerimeter=0;entryX=0;entryY=0.5;entryDx=0;entryDy=0;" edge="1" parent="1" source="NOYR-yz0x58pb2T-3S3r-158" target="NOYR-yz0x58pb2T-3S3r-195">
          <mxGeometry relative="1" as="geometry">
            <Array as="points">
              <mxPoint x="4270" y="265" />
              <mxPoint x="4270" y="415" />
            </Array>
          </mxGeometry>
        </mxCell>
        <mxCell id="NOYR-yz0x58pb2T-3S3r-198" value="fuzzyTest" style="edgeLabel;html=1;align=center;verticalAlign=middle;resizable=0;points=[];" connectable="0" vertex="1" parent="NOYR-yz0x58pb2T-3S3r-196">
          <mxGeometry x="0.5346" y="1" relative="1" as="geometry">
            <mxPoint x="-1" as="offset" />
          </mxGeometry>
        </mxCell>
        <mxCell id="NOYR-yz0x58pb2T-3S3r-202" style="edgeStyle=orthogonalEdgeStyle;rounded=0;orthogonalLoop=1;jettySize=auto;html=1;exitX=0.5;exitY=1;exitDx=0;exitDy=0;exitPerimeter=0;" edge="1" parent="1" source="NOYR-yz0x58pb2T-3S3r-158" target="NOYR-yz0x58pb2T-3S3r-201">
          <mxGeometry relative="1" as="geometry" />
        </mxCell>
        <mxCell id="NOYR-yz0x58pb2T-3S3r-203" value="blockDiagram" style="edgeLabel;html=1;align=center;verticalAlign=middle;resizable=0;points=[];" connectable="0" vertex="1" parent="NOYR-yz0x58pb2T-3S3r-202">
          <mxGeometry x="0.0795" relative="1" as="geometry">
            <mxPoint as="offset" />
          </mxGeometry>
        </mxCell>
        <mxCell id="NOYR-yz0x58pb2T-3S3r-158" value="Page Request&amp;nbsp;" style="strokeWidth=2;html=1;shape=mxgraph.flowchart.decision;whiteSpace=wrap;" vertex="1" parent="1">
          <mxGeometry x="4017.5" y="190" width="145" height="150" as="geometry" />
        </mxCell>
        <mxCell id="NOYR-yz0x58pb2T-3S3r-162" style="edgeStyle=orthogonalEdgeStyle;rounded=0;orthogonalLoop=1;jettySize=auto;html=1;exitX=0.5;exitY=1;exitDx=0;exitDy=0;" edge="1" parent="1" source="NOYR-yz0x58pb2T-3S3r-160" target="NOYR-yz0x58pb2T-3S3r-158">
          <mxGeometry relative="1" as="geometry" />
        </mxCell>
        <mxCell id="NOYR-yz0x58pb2T-3S3r-160" value="Start Flask Server" style="rounded=1;whiteSpace=wrap;html=1;absoluteArcSize=1;arcSize=14;strokeWidth=2;" vertex="1" parent="1">
          <mxGeometry x="3995" y="50" width="190" height="90" as="geometry" />
        </mxCell>
        <mxCell id="NOYR-yz0x58pb2T-3S3r-178" value="&lt;div&gt;&amp;nbsp;Returns an HTML page with a welcome message, all users, all water tanks, and the URL for the other webpages.&lt;/div&gt;" style="rounded=1;whiteSpace=wrap;html=1;absoluteArcSize=1;arcSize=14;strokeWidth=2;" vertex="1" parent="1">
          <mxGeometry x="3627" y="220" width="190" height="90" as="geometry" />
        </mxCell>
        <mxCell id="NOYR-yz0x58pb2T-3S3r-180" value="&lt;div&gt;Returns the image of the last user that logged in&lt;/div&gt;" style="rounded=1;whiteSpace=wrap;html=1;absoluteArcSize=1;arcSize=14;strokeWidth=2;" vertex="1" parent="1">
          <mxGeometry x="3995" y="570" width="190" height="90" as="geometry" />
        </mxCell>
        <mxCell id="NOYR-yz0x58pb2T-3S3r-181" value="&lt;div&gt;Returns the last video taken when three invalid RFID scans happened&amp;nbsp;&lt;/div&gt;" style="rounded=1;whiteSpace=wrap;html=1;absoluteArcSize=1;arcSize=14;strokeWidth=2;" vertex="1" parent="1">
          <mxGeometry x="4260" y="570" width="190" height="90" as="geometry" />
        </mxCell>
        <mxCell id="NOYR-yz0x58pb2T-3S3r-182" style="edgeStyle=orthogonalEdgeStyle;rounded=0;orthogonalLoop=1;jettySize=auto;html=1;exitX=0.5;exitY=1;exitDx=0;exitDy=0;exitPerimeter=0;" edge="1" parent="1" source="NOYR-yz0x58pb2T-3S3r-158" target="NOYR-yz0x58pb2T-3S3r-181">
          <mxGeometry relative="1" as="geometry">
            <mxPoint x="4100" y="350" as="sourcePoint" />
            <mxPoint x="3956" y="505" as="targetPoint" />
          </mxGeometry>
        </mxCell>
        <mxCell id="NOYR-yz0x58pb2T-3S3r-183" value="securityLog" style="edgeLabel;html=1;align=center;verticalAlign=middle;resizable=0;points=[];" connectable="0" vertex="1" parent="NOYR-yz0x58pb2T-3S3r-182">
          <mxGeometry x="-0.3486" y="2" relative="1" as="geometry">
            <mxPoint x="45" y="-1" as="offset" />
          </mxGeometry>
        </mxCell>
        <mxCell id="NOYR-yz0x58pb2T-3S3r-189" style="edgeStyle=orthogonalEdgeStyle;rounded=0;orthogonalLoop=1;jettySize=auto;html=1;exitX=1;exitY=0.5;exitDx=0;exitDy=0;" edge="1" parent="1" source="NOYR-yz0x58pb2T-3S3r-185" target="NOYR-yz0x58pb2T-3S3r-188">
          <mxGeometry relative="1" as="geometry" />
        </mxCell>
        <mxCell id="NOYR-yz0x58pb2T-3S3r-185" value="Get tankID and numberOFDays" style="shape=parallelogram;html=1;strokeWidth=2;perimeter=parallelogramPerimeter;whiteSpace=wrap;rounded=1;arcSize=12;size=0.23;" vertex="1" parent="1">
          <mxGeometry x="4440" y="60" width="240" height="90" as="geometry" />
        </mxCell>
        <mxCell id="NOYR-yz0x58pb2T-3S3r-188" value="Returns an HTML file with the latest results of water sample tests of the specified tank ID for the past specified number of days, with a maximum of 1000 results.&amp;nbsp;" style="rounded=1;whiteSpace=wrap;html=1;absoluteArcSize=1;arcSize=14;strokeWidth=2;" vertex="1" parent="1">
          <mxGeometry x="4772" y="60" width="190" height="90" as="geometry" />
        </mxCell>
        <mxCell id="NOYR-yz0x58pb2T-3S3r-194" style="edgeStyle=orthogonalEdgeStyle;rounded=0;orthogonalLoop=1;jettySize=auto;html=1;exitX=1;exitY=0.5;exitDx=0;exitDy=0;" edge="1" parent="1" source="NOYR-yz0x58pb2T-3S3r-190" target="NOYR-yz0x58pb2T-3S3r-193">
          <mxGeometry relative="1" as="geometry" />
        </mxCell>
        <mxCell id="NOYR-yz0x58pb2T-3S3r-190" value="Get type&lt;br&gt;(ph, tds, turbidity, orp, &lt;br&gt;drinkability)&amp;nbsp;" style="shape=parallelogram;html=1;strokeWidth=2;perimeter=parallelogramPerimeter;whiteSpace=wrap;rounded=1;arcSize=12;size=0.23;" vertex="1" parent="1">
          <mxGeometry x="4440" y="220" width="240" height="90" as="geometry" />
        </mxCell>
        <mxCell id="NOYR-yz0x58pb2T-3S3r-193" value="Returns an HTML file with a table showing the membership functions of chosen input/output, as well as the associated graph." style="rounded=1;whiteSpace=wrap;html=1;absoluteArcSize=1;arcSize=14;strokeWidth=2;" vertex="1" parent="1">
          <mxGeometry x="4772" y="220" width="190" height="90" as="geometry" />
        </mxCell>
        <mxCell id="NOYR-yz0x58pb2T-3S3r-200" style="edgeStyle=orthogonalEdgeStyle;rounded=0;orthogonalLoop=1;jettySize=auto;html=1;exitX=1;exitY=0.5;exitDx=0;exitDy=0;" edge="1" parent="1" source="NOYR-yz0x58pb2T-3S3r-195" target="NOYR-yz0x58pb2T-3S3r-199">
          <mxGeometry relative="1" as="geometry" />
        </mxCell>
        <mxCell id="NOYR-yz0x58pb2T-3S3r-195" value="Get sample ph, tds, turbidity, &lt;br&gt;and orp&amp;nbsp;" style="shape=parallelogram;html=1;strokeWidth=2;perimeter=parallelogramPerimeter;whiteSpace=wrap;rounded=1;arcSize=12;size=0.23;" vertex="1" parent="1">
          <mxGeometry x="4429" y="370" width="240" height="90" as="geometry" />
        </mxCell>
        <mxCell id="NOYR-yz0x58pb2T-3S3r-199" value="Returns an HTML file that shows the result of the fuzzy operation of the sample input, as well as whether the water is safe, &lt;br&gt;semi-safe, or dangerous.&amp;nbsp;" style="rounded=1;whiteSpace=wrap;html=1;absoluteArcSize=1;arcSize=14;strokeWidth=2;" vertex="1" parent="1">
          <mxGeometry x="4780" y="370" width="190" height="90" as="geometry" />
        </mxCell>
        <mxCell id="NOYR-yz0x58pb2T-3S3r-201" value="&lt;div&gt;Returns an HTML file with the block diagram on it&lt;/div&gt;" style="rounded=1;whiteSpace=wrap;html=1;absoluteArcSize=1;arcSize=14;strokeWidth=2;" vertex="1" parent="1">
          <mxGeometry x="3722" y="570" width="190" height="90" as="geometry" />
        </mxCell>
      </root>
    </mxGraphModel>
  </diagram>
</mxfile>
